<svg width="34" height="23" viewBox="0 0 34 23" fill="none" xmlns="http://www.w3.org/2000/svg">
<path d="M17 18C18.875 18 20.4688 17.3438 21.7812 16.0312C23.0938 14.7188 23.75 13.125 23.75 11.25C23.75 9.375 23.0938 7.78125 21.7812 6.46875C20.4688 5.15625 18.875 4.5 17 4.5C15.125 4.5 13.5313 5.15625 12.2188 6.46875C10.9062 7.78125 10.25 9.375 10.25 11.25C10.25 13.125 10.9062 14.7188 12.2188 16.0312C13.5313 17.3438 15.125 18 17 18ZM17 15.3C15.875 15.3 14.9188 14.9063 14.1313 14.1188C13.3438 13.3313 12.95 12.375 12.95 11.25C12.95 10.125 13.3438 9.16875 14.1313 8.38125C14.9188 7.59375 15.875 7.2 17 7.2C18.125 7.2 19.0813 7.59375 19.8688 8.38125C20.6562 9.16875 21.05 10.125 21.05 11.25C21.05 12.375 20.6562 13.3313 19.8688 14.1188C19.0813 14.9063 18.125 15.3 17 15.3ZM17 22.5C13.35 22.5 10.025 21.4813 7.025 19.4438C4.025 17.4062 1.85 14.675 0.5 11.25C1.85 7.825 4.025 5.09375 7.025 3.05625C10.025 1.01875 13.35 0 17 0C20.65 0 23.975 1.01875 26.975 3.05625C29.975 5.09375 32.15 7.825 33.5 11.25C32.15 14.675 29.975 17.4062 26.975 19.4438C23.975 21.4813 20.65 22.5 17 22.5ZM17 19.5C19.825 19.5 22.4188 18.7563 24.7813 17.2688C27.1438 15.7813 28.95 13.775 30.2 11.25C28.95 8.725 27.1438 6.71875 24.7813 5.23125C22.4188 3.74375 19.825 3 17 3C14.175 3 11.5813 3.74375 9.21875 5.23125C6.85625 6.71875 5.05 8.725 3.8 11.25C5.05 13.775 6.85625 15.7813 9.21875 17.2688C11.5813 18.7563 14.175 19.5 17 19.5Z" fill="#1E2835"/>
</svg>
