<svg width="99" height="33" viewBox="0 0 99 33" fill="none" xmlns="http://www.w3.org/2000/svg">
<path d="M1.375 12.375L16.5 27.5L31.625 12.375C23.265 4.01498 9.735 4.01498 1.375 12.375Z" fill="white" fill-opacity="0.3"/>
<path d="M6.77979 17.7796L16.5002 27.5L26.2207 17.7796C20.8479 12.4068 12.1525 12.4068 6.77979 17.7796Z" fill="white"/>
<path d="M63.25 2.75L35.75 30.25H63.25V2.75Z" fill="white" fill-opacity="0.3"/>
<path d="M54.7885 11.2114L35.75 30.2499H54.7885V11.2114Z" fill="white"/>
<path d="M86 4H80V6.6H77C75.8954 6.6 75 7.47304 75 8.55V28.05C75 29.127 75.8954 30 77 30H89C90.1046 30 91 29.127 91 28.05V8.55C91 7.47305 90.1046 6.6 89 6.6H86V4Z" fill="white"/>
</svg>
